<svg xmlns="http://www.w3.org/2000/svg" viewBox="0 0 276.62 84.35"><defs><style>.cls-1,.cls-2{fill:#fff;}.cls-2,.cls-3,.cls-4{fill-rule:evenodd;}.cls-3{fill:#828282;opacity:0.2;}.cls-4{fill:#527dbf;}</style></defs><g id="Layer_2" data-name="Layer 2"><g id="logo"><g id="logo-white"><path class="cls-1" d="M8.36,70.85A7,7,0,0,0,11.87,70a6.27,6.27,0,0,0,2.46-2.44,7.25,7.25,0,0,0,0-7,6.34,6.34,0,0,0-2.46-2.44,7.14,7.14,0,0,0-3.51-.88,7.22,7.22,0,0,0-3.53.88,6.56,6.56,0,0,0-2.49,2.44,7.18,7.18,0,0,0,0,7A6.48,6.48,0,0,0,4.83,70,7.11,7.11,0,0,0,8.36,70.85Zm0,1.28a8.79,8.79,0,0,1-4.29-1,7.72,7.72,0,0,1-3-2.9,8.44,8.44,0,0,1,0-8.26,7.7,7.7,0,0,1,3-2.89A8.8,8.8,0,0,1,8.36,56,8.68,8.68,0,0,1,12.62,57a7.73,7.73,0,0,1,3,2.89,8.43,8.43,0,0,1,0,8.29,7.81,7.81,0,0,1-3,2.89A8.78,8.78,0,0,1,8.36,72.13Z"/><path class="cls-1" d="M23.17,56.11H21.94V72h1.47V59a.12.12,0,0,1,.08-.11.11.11,0,0,1,.13,0L34,72h1.23V56.11H33.74v13a.14.14,0,0,1-.09.12.13.13,0,0,1-.13,0Z"/><path class="cls-1" d="M52.67,57.35V56.11H41.86V72H52.67V70.76H43.44a.12.12,0,0,1-.12-.12v-6a.13.13,0,0,1,.12-.12h9.23V63.32H43.44a.12.12,0,0,1-.12-.12V57.47a.12.12,0,0,1,.12-.12Z"/><path class="cls-1" d="M70.89,58.08a7,7,0,0,0-2.35-1.52A8.92,8.92,0,0,0,65.27,56,8.71,8.71,0,0,0,61,57a7.53,7.53,0,0,0-3,2.89,8.49,8.49,0,0,0,0,8.29,7.57,7.57,0,0,0,3,2.89,8.72,8.72,0,0,0,4.26,1,8.82,8.82,0,0,0,3.28-.6A7,7,0,0,0,70.88,70l-2.27.07a6.92,6.92,0,0,1-3.29.77A7.05,7.05,0,0,1,61.78,70a6.51,6.51,0,0,1-2.5-2.44,7.14,7.14,0,0,1,0-6.94,6.58,6.58,0,0,1,2.5-2.44,7.16,7.16,0,0,1,3.54-.89,6.86,6.86,0,0,1,3.39.83Z"/><path class="cls-1" d="M77.58,56.11H76.12V72H86.61V70.76H77.7a.12.12,0,0,1-.12-.12Z"/><rect class="cls-1" x="90.87" y="56.11" width="1.46" height="15.88"/><path class="cls-1" d="M111.54,58.08a7,7,0,0,0-2.34-1.52,8.92,8.92,0,0,0-3.27-.59A8.75,8.75,0,0,0,101.65,57a7.6,7.6,0,0,0-3,2.89,8.49,8.49,0,0,0,0,8.29,7.71,7.71,0,0,0,3,2.89,9.28,9.28,0,0,0,7.55.44A6.83,6.83,0,0,0,111.54,70H109.4a6.74,6.74,0,0,1-3.43.85,7.11,7.11,0,0,1-3.54-.89,6.49,6.49,0,0,1-2.49-2.44,7.07,7.07,0,0,1,0-6.94,6.56,6.56,0,0,1,2.49-2.44,7.21,7.21,0,0,1,3.54-.89,6.84,6.84,0,0,1,3.48.83Z"/><path class="cls-1" d="M118.24,56.11h-1.47V72h1.47V65.63a.11.11,0,0,1,.06-.11.12.12,0,0,1,.13,0L127.32,72h2.58l-10.25-7.5a.11.11,0,0,1-.05-.09.1.1,0,0,1,0-.09l9.81-8.2H127.1l-8.67,7.09a.14.14,0,0,1-.13,0,.11.11,0,0,1-.06-.11Z"/><path class="cls-1" d="M180.7,56.11H179V72h1.4V59.29a.12.12,0,0,1,.09-.12.12.12,0,0,1,.13,0l5.82,10.72h1.63l5.82-10.78a.12.12,0,0,1,.13-.06.11.11,0,0,1,.09.12V72h1.4V56.11h-1.7L187.39,68a.11.11,0,0,1-.2,0Z"/><path class="cls-1" d="M211.56,66.55a.11.11,0,0,0,.1-.06.11.11,0,0,0,0-.11l-3.3-8.91a.12.12,0,0,0-.11-.07h-.93a.12.12,0,0,0-.11.07l-3.51,8.91a.14.14,0,0,0,0,.11.11.11,0,0,0,.1.06Zm.66,1.26h-9l-1.92,4.3h-1.53L206.42,56h2.69l6.56,16.12h-1.55Z"/><path class="cls-1" d="M225.7,65.65a5.64,5.64,0,0,0,3.78-.94,4.27,4.27,0,0,0,.24-6.15A5.73,5.73,0,0,0,226,57.33l-4.28-.17a.12.12,0,0,0-.12.12l-.32,8.08a.11.11,0,0,0,.11.12Zm4.76,6.64L227,67a11.17,11.17,0,0,1-1.3,0l-4.32-.17-.21,5.11-1.7-.07.64-16.11,6,.24a7.28,7.28,0,0,1,4.78,1.67,5,5,0,0,1,1.58,4.12,5.29,5.29,0,0,1-1.08,3.15,5.23,5.23,0,0,1-2.8,1.76l3.72,5.68Z"/><rect class="cls-1" x="237.74" y="56.11" width="1.46" height="15.88"/><path class="cls-1" d="M247.11,56.11h-1.22V72h1.46V59a.12.12,0,0,1,.08-.11.11.11,0,0,1,.13,0l10.33,13h1.23V56.11h-1.44v13a.13.13,0,0,1-.08.12.15.15,0,0,1-.14,0Z"/><path class="cls-1" d="M276.62,57.35V56.11H265.8V72h10.82V70.76h-9.23a.12.12,0,0,1-.12-.12v-6a.12.12,0,0,1,.12-.12h9.23V63.32h-9.23a.12.12,0,0,1-.12-.12V57.47a.12.12,0,0,1,.12-.12Z"/><path class="cls-2" d="M129.89,31.55s-.17.32-.39.81c-.11.24-.23.52-.34.82s-.15.51-.22.77c-.25.95-.41,1.82-.41,1.82a.12.12,0,0,0,.07.15.11.11,0,0,0,.14-.08s.38-.8.74-1.72c.09-.25.19-.5.27-.75s.15-.61.2-.87c.11-.52.16-.88.16-.88a.11.11,0,0,0-.07-.14A.12.12,0,0,0,129.89,31.55Z"/><path class="cls-2" d="M175.13,31.62s0,.36.15.88c.06.26.12.56.21.87s.17.5.27.75c.36.92.73,1.72.73,1.72a.12.12,0,0,0,.15.08.12.12,0,0,0,.07-.15s-.17-.87-.41-1.82c-.07-.26-.14-.52-.23-.77s-.23-.58-.33-.82c-.22-.49-.4-.81-.4-.81a.1.1,0,0,0-.14-.07A.11.11,0,0,0,175.13,31.62Z"/><path class="cls-2" d="M152.77,17.06s.12-1.23.2-3c0-.62,0-1.3,0-2,0-5-.24-11.81-.24-11.81a.19.19,0,1,0-.38,0S152.15,7,152.15,12c0,.72,0,1.4,0,2,.08,1.81.2,3,.2,3a.19.19,0,0,0,.38,0Z"/><path class="cls-2" d="M160,20.24a0,0,0,0,0,0,0s0,0,0,0a20.43,20.43,0,0,0-7.45-1.33,18.87,18.87,0,0,0-8.92,1.87.18.18,0,0,1-.25-.07.18.18,0,0,1,.06-.25A18.35,18.35,0,0,1,152.6,18a18.7,18.7,0,0,1,9.18,2.22.33.33,0,0,1,.16.37.33.33,0,0,1-.32.25l-9-.14a.19.19,0,1,1,0-.38Z"/><path class="cls-3" d="M130.61,46.62c12.78-7.74,31.37-7.22,43.4-.2a.47.47,0,0,1,.2.58c-4.5,11.19-13.25,27-22.52,34.37l.8-34.38c-7.65-2.17-18.52-2.14-21.88-.37"/><path class="cls-2" d="M177.39,45.17a.25.25,0,0,0-.11-.31c-7-4.08-15.83-6.3-24.8-6.42s-18.25,1.9-25.78,6.35a.13.13,0,0,1-.09,0,.16.16,0,0,1-.08-.06h0a.11.11,0,0,1,0-.1.13.13,0,0,1,0-.07h0c7.51-4.66,16.75-6.91,25.91-7,9.48-.07,18.88,2.19,26.21,6.49a.69.69,0,0,1,.28.85A119.76,119.76,0,0,1,165.8,70.17c-1.1,1.56-2.24,3.1-3.46,4.56-.82,1-1.67,1.94-2.56,2.85a46.45,46.45,0,0,1-3.52,3.22c-1.23,1-2.51,2-3.82,2.85l-.1.08-.16-.19.1-.08c1.12-1.1,2.17-2.26,3.22-3.44s2-2.36,3-3.56,1.79-2.16,2.66-3.25c2-2.56,4-5.21,5.76-7.95A125.49,125.49,0,0,0,177.39,45.17Z"/><path class="cls-2" d="M127.1,41.47a.08.08,0,0,0,0,.07.06.06,0,0,0,.08,0,44.21,44.21,0,0,1,9.9-4.16,52.83,52.83,0,0,1,11.51-1.9A55.51,55.51,0,0,1,171.47,39a.09.09,0,0,1,.05.11.08.08,0,0,1-.11,0,56.67,56.67,0,0,0-34-.91,44.11,44.11,0,0,0-10.5,4.54.46.46,0,0,1-.47,0,.47.47,0,0,1-.24-.41s0-3.18,0-4.07a.41.41,0,0,1,.2-.35c7.56-4.46,17-6.59,26.09-6.51,9.41.09,18.7,2.5,25.89,6.89a.08.08,0,1,1-.08.14c-7.21-4.25-16.47-6.48-25.81-6.44-8.91,0-17.91,2.13-25.28,6.56a.21.21,0,0,0-.11.19C127.09,39.31,127.1,41,127.1,41.47Z"/><path class="cls-4" d="M152.12,32.79v2h0c-.71,0-1.43,0-2.14,0a53.75,53.75,0,0,0-6.07.59,49.32,49.32,0,0,0-5.5,1.16c-.71.19-1.42.4-2.12.62h0l.68-2.28h0c.62-.18,1.24-.35,1.86-.5,1.7-.43,3.43-.76,5.17-1a58.47,58.47,0,0,1,5.91-.55c.72,0,1.45,0,2.18-.05Zm1,0c.7,0,1.39,0,2.09.07a55.41,55.41,0,0,1,5.89.59,54.16,54.16,0,0,1,5.39,1.1c.62.16,1.24.33,1.85.51h0l.68,2.29a54.24,54.24,0,0,0-15.95-2.59v-2ZM135.8,35.26l-.68,2.32h0l-1.52.56c-1,.41-2,.85-3,1.33-.39.18-.77.38-1.15.57l-.25.13,0,0,0,0a0,0,0,0,1,0,0s0,0,0,0V38.05s0,0,0,0l0,0,0,0,.13-.06.46-.23,1.42-.65c1-.45,2.08-.86,3.14-1.24.51-.18,1-.35,1.55-.51Zm33.78.18,1.4.47c1.05.38,2.1.79,3.13,1.24.46.2.92.42,1.38.64l.44.21.12.06,0,0,0,0a.05.05,0,0,1,0,0v2.14s0,0,0,0h0l0,0,0,0a2.44,2.44,0,0,0-.28-.14c-.35-.19-.71-.37-1.07-.54q-1.49-.72-3-1.32c-.46-.18-.91-.35-1.37-.51h0l-.69-2.33Z"/><path class="cls-2" d="M177.07,26a.16.16,0,0,0,0-.09.12.12,0,0,0-.09,0l-44.29-.12a.35.35,0,0,1-.31-.21.36.36,0,0,1,.08-.38h0a10.6,10.6,0,0,1,7.38-2.94l28.77.13a.17.17,0,0,1,.17.17.17.17,0,0,1-.17.18l-28.77.13a10.09,10.09,0,0,0-3.73.75,9.84,9.84,0,0,0-2.29,1.31.09.09,0,0,0,0,.11.09.09,0,0,0,.09.06L177.56,25a.45.45,0,0,1,.46.46h0a5.64,5.64,0,0,1-.42,2.12,5.55,5.55,0,0,1-3,3,5.69,5.69,0,0,1-2.13.41l-39.72-.21a5.43,5.43,0,0,1-2-.42A5.34,5.34,0,0,1,129,29.17a5.21,5.21,0,0,1-1.14-1.73,5.5,5.5,0,0,1-.38-1.85.15.15,0,0,1,0-.12.17.17,0,0,1,.12,0h0a.17.17,0,0,1,.17.17,5,5,0,0,0,1.46,3.29,4.83,4.83,0,0,0,1.6,1.05,4.75,4.75,0,0,0,1.87.35l39.72-.21a4.68,4.68,0,0,0,1.78-.36,4.61,4.61,0,0,0,2.51-2.52A4.87,4.87,0,0,0,177.07,26Z"/><path class="cls-4" d="M167.07,26.53h9.09l-.09.18a4.79,4.79,0,0,1-4.32,2.71h-3.82Zm-.19,2.89H154.62l-1.42-2.89H166Zm-13.38,0h-1.84l1-1.79Zm-3,0h-12l.85-2.89h12.73Zm-12.22-2.89-.86,2.89H133a4.48,4.48,0,0,1-4.19-2.89h9.49Z"/><path class="cls-2" d="M152.61,14.85l1,.79a.11.11,0,0,0,.17,0,.13.13,0,0,0,0-.18l-1-1.36a.34.34,0,0,0-.27-.1.33.33,0,0,0-.26.13s-.37.4-.78.95c-.73,1-1.63,2.39-1.63,2.39a.12.12,0,0,0,0,.17.12.12,0,0,0,.18,0s1.19-1.17,2-2.08C152.27,15.27,152.47,15,152.61,14.85Z"/><path class="cls-1" d="M151.56,84.33a.11.11,0,0,1-.17-.09c0-2.61-.29-29.49-.32-33.08A.24.24,0,0,0,151,51a.24.24,0,0,0-.23,0c-2.26,1.21-6.54,3.57-7.93,4.3a.21.21,0,0,1-.23,0,.23.23,0,0,1-.11-.2V53.2a.4.4,0,0,1,.2-.34c2-1,11.91-6.47,14.4-7.83a.37.37,0,0,1,.38,0,.39.39,0,0,1,.19.33v30a7.18,7.18,0,0,1-.25,1.9C157,78.76,156.35,81,151.56,84.33Z"/></g></g></g></svg>